<?xml version="1.0" encoding="UTF-8" standalone="no"?>
<!-- Created with Inkscape (http://www.inkscape.org/) -->

<svg
   width="256"
   height="256"
   viewBox="0 0 67.733333 67.733333"
   version="1.1"
   id="svg5"
   xml:space="preserve"
   inkscape:export-filename="http-diff.png"
   inkscape:export-xdpi="97.102791"
   inkscape:export-ydpi="97.102791"
   inkscape:version="1.2.2 (b0a8486541, 2022-12-01)"
   sodipodi:docname="logo.svg"
   xmlns:inkscape="http://www.inkscape.org/namespaces/inkscape"
   xmlns:sodipodi="http://sodipodi.sourceforge.net/DTD/sodipodi-0.dtd"
   xmlns="http://www.w3.org/2000/svg"
   xmlns:svg="http://www.w3.org/2000/svg"><sodipodi:namedview
     id="namedview7"
     pagecolor="#505050"
     bordercolor="#eeeeee"
     borderopacity="1"
     inkscape:showpageshadow="0"
     inkscape:pageopacity="0"
     inkscape:pagecheckerboard="0"
     inkscape:deskcolor="#505050"
     inkscape:document-units="px"
     showgrid="false"
     inkscape:zoom="1.4783586"
     inkscape:cx="-46.335173"
     inkscape:cy="283.76066"
     inkscape:window-width="2560"
     inkscape:window-height="1366"
     inkscape:window-x="0"
     inkscape:window-y="32"
     inkscape:window-maximized="1"
     inkscape:current-layer="layer1" /><defs
     id="defs2" /><g
     inkscape:label="Layer 1"
     inkscape:groupmode="layer"
     id="layer1"
     transform="translate(49.674694,-66.716232)"
     style="display:inline"><rect
       style="display:inline;opacity:1;fill:#262626;fill-opacity:1;stroke:none;stroke-width:0.899999;stop-color:#000000"
       id="rect2987-6"
       width="66.964088"
       height="66.688377"
       x="-49.290073"
       y="67.238708"
       ry="3.6276588"
       inkscape:label="bg" /><g
       inkscape:groupmode="layer"
       id="layer3"
       inkscape:label="Layer 2"
       transform="translate(-49.674694,66.716232)"><path
         d="M 66.797616,61.12911 M 2.9751565,9.8102789 V 29.518121 h 4.1956087 v -9.854179 h 4.1950928 v 9.854179 h 4.195093 V 9.8102789 H 11.365858 V 14.737111 H 7.1707652 V 9.8102789 Z m 16.7814035,0 v 4.9268321 h 4.195093 v 14.78101 h 4.195093 v -14.78101 h 4.195609 V 9.8102789 Z m 16.780888,0 v 4.9268321 h 4.195093 v 14.78101 h 4.195609 v -14.78101 h 4.195093 V 9.8102789 Z m 16.780888,0 V 29.518121 h 4.195609 V 24.59129 h 4.195093 v -4.927348 h -4.195093 v -4.926831 h 4.195093 V 9.8102789 Z m 8.390702,4.9268321 v 4.926831 h 4.19561 V 14.737111 Z M 2.9751565,39.37178 V 59.07962 H 11.365858 V 54.15279 H 7.1707652 v -9.85418 h 4.1950928 v -4.92683 z m 8.3907015,4.92683 v 9.85418 h 4.195093 v -9.85418 z m 12.585795,-4.92683 v 19.70784 h 4.195093 V 39.37178 Z m 12.585795,0 v 19.70784 h 4.195093 v -4.92683 h 4.195609 v -4.92683 h -4.195609 v -4.92735 h 4.195609 v -4.92683 z m 16.780888,0 v 19.70784 h 4.195609 v -4.92683 h 4.195093 v -4.92683 h -4.195093 v -4.92735 h 4.195093 v -4.92683 z"
         style="display:inline;fill:#ffffff;stroke:none;stroke-width:0.5358"
         id="path3301"
         inkscape:label="path3301" /></g></g></svg>
